<?xml version="1.0" standalone="no"?>
<!DOCTYPE svg PUBLIC "-//W3C//DTD SVG 20010904//EN"
 "http://www.w3.org/TR/2001/REC-SVG-20010904/DTD/svg10.dtd">
<svg version="1.0" xmlns="http://www.w3.org/2000/svg"
 width="126.000000pt" height="42.000000pt" viewBox="0 0 126.000000 42.000000"
 preserveAspectRatio="xMidYMid meet">
<metadata>
Created by potrace 1.10, written by Peter Selinger 2001-2011
</metadata>
<g transform="translate(0.000000,42.000000) scale(0.100000,-0.100000)"
fill="#000000" stroke="none">
<path d="M997 396 c-120 -43 -217 -171 -217 -287 0 -49 21 -67 55 -45 39 25
56 70 56 143 0 36 -2 68 -5 71 -3 3 -6 -23 -6 -57 0 -69 -21 -125 -53 -142
-44 -24 -45 46 -1 138 39 81 130 152 216 168 58 11 53 -10 -19 -70 -83 -69
-105 -98 -101 -127 5 -40 50 -53 183 -53 71 0 122 4 124 10 2 6 -33 9 -96 7
-107 -4 -180 10 -190 35 -5 12 19 40 80 98 48 45 87 86 87 91 0 34 -49 42
-113 20z"/>
<path d="M320 344 c-25 -8 -94 -28 -155 -44 -61 -16 -97 -29 -80 -29 26 -1
221 46 271 66 25 9 -63 -102 -131 -166 -54 -51 -163 -126 -171 -118 -8 7 75
75 140 115 65 39 62 56 -3 22 -57 -28 -185 -150 -172 -163 13 -13 101 31 172
87 57 45 198 211 199 234 0 15 -13 14 -70 -4z"/>
<path d="M427 130 c-55 -22 -106 -40 -115 -40 -14 0 -15 -2 -3 -9 10 -6 27 -4
50 6 20 8 66 27 104 41 64 24 68 24 86 7 17 -15 25 -15 56 -5 37 12 116 10
148 -4 9 -5 17 -4 17 1 0 12 -60 33 -95 33 -15 0 -46 -5 -67 -12 -35 -10 -41
-10 -50 5 -13 23 -20 22 -131 -23z"/>
</g>
</svg>
